<svg width="16" height="16" viewBox="0 0 16 16" fill="none" xmlns="http://www.w3.org/2000/svg">
<path d="M4.66667 0.5C2.36583 0.5 0.5 2.36583 0.5 4.66667V11.3333C0.5 13.6342 2.36583 15.5 4.66667 15.5H11.3333C13.6342 15.5 15.5 13.6342 15.5 11.3333V4.66667C15.5 2.36583 13.6342 0.5 11.3333 0.5H4.66667ZM13 2.16667C13.46 2.16667 13.8333 2.54 13.8333 3C13.8333 3.46 13.46 3.83333 13 3.83333C12.54 3.83333 12.1667 3.46 12.1667 3C12.1667 2.54 12.54 2.16667 13 2.16667ZM8 3.83333C10.3008 3.83333 12.1667 5.69917 12.1667 8C12.1667 10.3008 10.3008 12.1667 8 12.1667C5.69917 12.1667 3.83333 10.3008 3.83333 8C3.83333 5.69917 5.69917 3.83333 8 3.83333ZM8 5.5C7.33696 5.5 6.70107 5.76339 6.23223 6.23223C5.76339 6.70107 5.5 7.33696 5.5 8C5.5 8.66304 5.76339 9.29893 6.23223 9.76777C6.70107 10.2366 7.33696 10.5 8 10.5C8.66304 10.5 9.29893 10.2366 9.76777 9.76777C10.2366 9.29893 10.5 8.66304 10.5 8C10.5 7.33696 10.2366 6.70107 9.76777 6.23223C9.29893 5.76339 8.66304 5.5 8 5.5Z" fill="#030303"/>
</svg>
