<svg width="16" height="16" viewBox="0 0 16 16" fill="none" xmlns="http://www.w3.org/2000/svg">
<path d="M3 0.5C1.62919 0.5 0.5 1.62919 0.5 3V13C0.5 14.3708 1.62919 15.5 3 15.5H13C14.3708 15.5 15.5 14.3708 15.5 13V3C15.5 1.62919 14.3708 0.5 13 0.5H3ZM8 3.83333H9.66667C9.66667 4.67083 10.8925 5.5 11.3333 5.5V7.16667C10.8292 7.16667 10.2233 6.94513 9.66667 6.57096V9.66667C9.66667 11.045 8.545 12.1667 7.16667 12.1667C5.78833 12.1667 4.66667 11.045 4.66667 9.66667C4.66667 8.28833 5.78833 7.16667 7.16667 7.16667V8.83333C6.70667 8.83333 6.33333 9.2075 6.33333 9.66667C6.33333 10.1258 6.70667 10.5 7.16667 10.5C7.62667 10.5 8 10.1258 8 9.66667V3.83333Z" fill="#030303"/>
</svg>
